<svg xmlns="http://www.w3.org/2000/svg" viewBox="0 0 433.27 83.89"><defs><style>.cls-1{fill:#d7d8d9;}</style></defs><title>Asset 5</title><g id="Layer_2" data-name="Layer 2"><g id="Layer_1-2" data-name="Layer 1"><path id="_Path_" data-name="&lt;Path&gt;" class="cls-1" d="M33.9,13.15c-5.1,0-6.58,2.27-6.58,7.25v8.28H40.93L39.57,42.06H27.32V82.65H11V42.06H0V28.68H11v-8C11,7.14,16.44,0,31.63,0a77.18,77.18,0,0,1,9.52.56V13.15"/><path class="cls-1" d="M42.06,54c0-15.08,7.14-26.42,22.11-26.42,8.16,0,13.15,4.2,15.53,9.41V28.68H95.35v54H79.7V74.49c-2.27,5.21-7.37,9.29-15.53,9.29-15,0-22.11-11.33-22.11-26.41m16.33.23c0,8.05,3,13.37,10.54,13.37C75.62,71,79,66.09,79,58.39V52.94c0-7.71-3.4-12.59-10.09-12.59-7.59,0-10.54,5.33-10.54,13.38Z"/><path id="_Path_2" data-name="&lt;Path&gt;" class="cls-1" d="M129.35,27.54c6.35,0,12.36,1.36,15.64,3.63l-3.63,11.56a25.68,25.68,0,0,0-10.88-2.49c-8.85,0-12.7,5.1-12.7,13.83v3.17c0,8.73,3.85,13.83,12.7,13.83a25.68,25.68,0,0,0,10.88-2.49L145,80.15c-3.28,2.27-9.3,3.63-15.64,3.63-19.16,0-27.89-10.32-27.89-26.87V54.41c0-16.55,8.73-26.87,27.89-26.87"/><path class="cls-1" d="M147.15,57.7V52.94c0-15.3,8.73-25.4,26.53-25.4,16.78,0,24.14,10.21,24.14,25.17v8.61H163.47C163.81,68.7,167.1,72,176.17,72a46.47,46.47,0,0,0,17.35-3.28l2.94,11.22c-4.3,2.27-13.15,4-21,4-20.63,0-28.34-10.31-28.34-26.19m16.33-7H183.2V49.31c0-5.9-2.38-10.54-9.52-10.54-7.37,0-10.2,4.65-10.2,11.9"/><path class="cls-1" d="M258.36,57.36c0,15.08-7.25,26.42-22.22,26.42-8.16,0-13.83-4.08-16.1-9.3v8.16H204.63V1.58L221,.11V36.16c2.38-4.76,7.59-8.61,15.19-8.61,15,0,22.22,11.33,22.22,26.41M242,53.62c0-7.6-3-13.26-10.77-13.26-6.69,0-10.32,4.76-10.32,12.47v5.67C221,66.2,224.58,71,231.27,71,239.09,71,242,65.3,242,57.7Z"/><path class="cls-1" d="M263.8,57V54.3c0-15.53,8.84-26.76,26.87-26.76s26.87,11.23,26.87,26.76V57c0,15.54-8.85,26.76-26.87,26.76S263.8,72.56,263.8,57m37.41-3.85c0-7.14-3-12.81-10.54-12.81S280.13,46,280.13,53.17v5c0,7.14,2.94,12.81,10.54,12.81s10.54-5.67,10.54-12.81Z"/><path class="cls-1" d="M323,57V54.3c0-15.53,8.84-26.76,26.87-26.76s26.87,11.23,26.87,26.76V57c0,15.54-8.85,26.76-26.87,26.76S323,72.56,323,57m37.41-3.85c0-7.14-3-12.81-10.54-12.81S339.3,46,339.3,53.17v5c0,7.14,2.94,12.81,10.54,12.81s10.54-5.67,10.54-12.81Z"/><polyline id="_Path_3" data-name="&lt;Path&gt;" class="cls-1" points="399.15 54.41 415.25 28.68 432.6 28.68 415.7 55.32 433.27 82.64 415.94 82.64 399.15 56.23 399.15 82.64 382.83 82.64 382.83 1.58 399.15 0.11"/></g></g></svg>