<svg xmlns="http://www.w3.org/2000/svg" viewBox="0 0 3.56 3.56"><defs><style>.cls-1{fill:#fff;}</style></defs><title>Asset 6</title><g id="Layer_2" data-name="Layer 2"><g id="Layer_1-2" data-name="Layer 1"><path class="cls-1" d="M0,0V3.56H3.56V0ZM1.07,2.85H.66V1.3h.41Zm0-1.76H.66V.71h.41ZM2.9,2.85H2.48V2.06a1.16,1.16,0,0,0,0-.32.22.22,0,0,0-.08-.12.25.25,0,0,0-.14,0A.33.33,0,0,0,2,1.64a.28.28,0,0,0-.11.16,1.32,1.32,0,0,0,0,.35v.7H1.48V1.3h.38v.23a.62.62,0,0,1,.76-.21.41.41,0,0,1,.17.12.47.47,0,0,1,.08.17,1.35,1.35,0,0,1,0,.28Z"/></g></g></svg>