<svg xmlns="http://www.w3.org/2000/svg" viewBox="0 0 371.73 94.19"><defs><style>.cls-1{fill:#d7d8d9;}</style></defs><title>Asset 5</title><g id="Layer_2" data-name="Layer 2"><g id="Layer_1-2" data-name="Layer 1"><polyline class="cls-1" points="0 13.93 14.53 13.93 14.53 66.86 41.44 66.86 41.44 80.26 0 80.26 0 13.93"/><path class="cls-1" d="M47.85,35.29h14v45h-14Zm7-22.34a8.1,8.1,0,1,1-8.1,8.1,8.1,8.1,0,0,1,8.1-8.1"/><polyline class="cls-1" points="120.2 13.93 134.16 13.93 134.16 53.57 149.97 35.27 167.09 35.27 148.77 56.08 166.71 80.26 149.16 80.26 134.34 58.04 134.16 58.04 134.16 80.26 120.2 80.26 120.2 13.93"/><path class="cls-1" d="M69.54,35.3H82.95v6.14h.19c1.86-3.54,6.42-7.26,13.22-7.26,14.15,0,16.76,9.31,16.76,21.41V80.24h-14V58.38c0-5.21-.09-11.91-7.27-11.91S83.51,52.15,83.51,58V80.24h-14V35.3"/><path class="cls-1" d="M196.49,52.54A8.38,8.38,0,0,0,187.91,44c-6.14,0-9.49,4.19-9.86,8.57h18.43m11.82,19.92a24.59,24.59,0,0,1-19.08,8.94c-14,0-25.14-9.31-25.14-23.74s11.17-23.74,25.14-23.74c13,0,21.23,9.31,21.23,23.74V62h-32.4c1.11,5.31,5.13,8.75,10.52,8.75,4.57,0,7.64-2.33,10-5.49Z"/><path class="cls-1" d="M239.53,46.16c-7,0-11.16,4.66-11.16,11.44s4.19,11.46,11.16,11.46,11.18-4.65,11.18-11.46-4.19-11.44-11.18-11.44m24,34.07H250.72v-6h-.18a17.56,17.56,0,0,1-13.87,7.07c-13.41,0-22.25-9.68-22.25-23.36,0-12.57,7.82-24.12,20.66-24.12,5.78,0,11.18,1.58,14.35,6h.18V13.92h14Z"/><path class="cls-1" d="M364.75,0H284.49a6.88,6.88,0,0,0-7,6.79V87.39a6.88,6.88,0,0,0,7,6.8h80.27a6.9,6.9,0,0,0,7-6.8V6.79a6.89,6.89,0,0,0-7-6.79M291.49,35.31h14v45h-14Zm7-6.14a8.1,8.1,0,1,1,8.1-8.1A8.1,8.1,0,0,1,298.48,29.17Zm59.31,51.09h-14V58.4c0-5.21-.1-11.92-7.26-11.92S328.2,52.16,328.2,58V80.26h-14V35.31h13.4v6.14h.19c1.87-3.53,6.42-7.26,13.22-7.26,14.14,0,16.75,9.31,16.75,21.42Z"/></g></g></svg>