<?xml version="1.0" encoding="utf-8"?>
<!-- Generator: Adobe Illustrator 21.1.0, SVG Export Plug-In . SVG Version: 6.00 Build 0)  -->
<svg version="1.1" id="Layer_1" xmlns="http://www.w3.org/2000/svg" xmlns:xlink="http://www.w3.org/1999/xlink" x="0px" y="0px"
	 viewBox="0 0 288 288" style="enable-background:new 0 0 288 288;" xml:space="preserve">
<g>
	<path d="M97.8,240.8c0.9-0.5,1.8-0.9,2.6-1.4c2.4-1.3,4.8-2.6,7.1-4.1c3.2-2,5.9-4.8,9.5-6.2c9.4-3.6,16.5-9.4,23.8-15.1
		c11.3-8.8,22.6-17.6,33.8-26.5c2.9-2.3,5.8-4.8,8.1-7.5c7-8.2,15.4-15.6,20.6-24.8c2.2-4,3.5-8,3.9-12.3c1.1-12.3-7.2-20-23.8-21
		c-6.4-0.4-12.8-0.3-19.2-0.1c-6.8,0.2-14.3-0.1-15.8,7.3c-4.9,2.1-3.1,6.6-5.5,9.6c-2.4,2.9-4.5,6-6,9.3
		c-3.6,8.2-6.7,16.6-10.3,24.8c-5.7,13-11.6,25.9-17.6,39.3c0.8,0.3,2.4,1,4,1.7c-1.7,5.8-4.3,8.1-10,8.7
		c-5.1,0.5-10.4-1.8-12.6-6.5c-1.3-2.8-2-6.1-1.3-9c1.1-4.9,3.5-9.7,5.4-14.5c4.1-10.5,8.4-21.1,12.4-31.7c0.6-1.4,0.3-3.1,0.4-4.7
		c-4.8,0-9.3-0.1-13.9,0c-5,0.1-8.7-0.9-11.5-4.7c-3.2-4.4-7.6-8.4-12.3-13.4c0-2.1,3-3.3,6.1-4.5c9-3.7,18.2-7.1,26.7-11.3
		c8-4,16.7-7.7,22.1-14.3c1.6-1.9,3.4-4,3.9-6.1c2.3-8.9,4.1-17.9,6.2-26.8c0.4-1.5,0.8-3.1,1.7-4.4c1.6-2.4,3.9-3.1,7.4-2
		c6.2,1.9,9.5,5.3,9.6,10.5c0,1.6,0,3.2,0.9,5c13.8-11.9,26.7-24,30.9-41.4l-1.2-1.2c-3.6,0.3-5.9,0.3-8.1,0.8
		c-15.7,4-31,8.7-43.7,17.5c-10.7,7.4-21.7,14.6-30,23.9c-7.3,8.1-14.1,16.4-17.2,26.2c-0.4,1.3-1.1,2.7-1,4c0.5,4.9-3,7-8.6,8
		c-3.8-2.3-7.7-4.7-11.4-7c6.2-16.5,13-32.5,26.6-45.9c13.1-12.8,27.9-24.3,47-32c10.7-4.3,21.2-8.2,33.2-8.7L144,1.6L1.3,144.3
		l91.3,91.3L97.8,240.8z"/>
	<path d="M205.4,63c-6.4,12-15.3,22.8-25.6,33c-4.1,4.1-8.1,8.2-12.8,13.1c4.3,0.6,7.4,1.1,10.5,1.4c10.3,1.2,20.2,3.2,29.5,7
		c21.2,8.6,28,27.2,22.5,43.1c-3.8,10.8-11.4,20.2-20.2,28.9c-9.5,9.4-19.8,18.3-29.6,27.5c-3,2.8-6.2,5.5-6.9,9.4
		c-0.3,1.4-1.9,2.7-3,4c-1.3,1.6-3,2.8-2.4,5.2c0.3,1.3-1.1,2.8-1.9,4.2c-1.6,2.6-2.9,5.2-5,7.6c-1.6,1.9-3.8,3.5-6.1,4.9
		c-5.4,3.3-11,6.5-16.7,9.4c-2.8,1.4-6.4,2.1-9.4,3.3c-1.5,0.6-3,1.3-4.4,1.9L144,287l142.7-142.7L205.4,63z"/>
</g>
</svg>
