<svg xmlns="http://www.w3.org/2000/svg" viewBox="0 0 375.8 78.66"><defs><style>.cls-1{fill:#d7d8d9;}</style></defs><title>Asset 5</title><g id="Layer_2" data-name="Layer 2"><g id="Capa_1" data-name="Capa 1"><path class="cls-1" d="M300.85,64.69V.37a.37.37,0,0,0-.37-.37l-.13,0,0,0C296.51,1.86,277,5.13,277,5.13v9.25h7.16V64.69a2.76,2.76,0,0,1-2.76,2.76h-3.59V78.66H307.2V67.45h-3.59A2.76,2.76,0,0,1,300.85,64.69Z"/><path class="cls-1" d="M250.8,23.67a21.94,21.94,0,0,0-12.28,3.81V.37a.37.37,0,0,0-.37-.37L238,0l0,0c-3.8,1.81-23.3,5.08-23.3,5.08v9.25h7.16V78.66h10.54l3.53-5.6,2.62,1.8a22,22,0,0,0,12.28,3.8c13.37,0,24.2-12.31,24.2-27.5S264.17,23.67,250.8,23.67Zm-4.38,43.78c-3.1,0-5.89-1.8-7.9-4.71v-22c2-2.9,4.81-4.71,7.9-4.71,6.12,0,11.08,7,11.08,15.73S252.54,67.45,246.42,67.45Z"/><path class="cls-1" d="M33.63,67.31c-3.7,0-8.78-2.25-8.78-3.76V36.66h17V24.87h-17V7.16H15.11a23.32,23.32,0,0,1-3.67,11.67,15.62,15.62,0,0,1-3.28,3.61A10.73,10.73,0,0,1,1.5,24.87H0V36.66H8.16V65.74c0,11,9.86,13,16.65,12.92h4.44c10.38,0,12.37-1,14.75-2.23V63.82l0,0A19.8,19.8,0,0,1,33.63,67.31Z"/><circle class="cls-1" cx="365.75" cy="68.6" r="10.06"/><path class="cls-1" d="M359.46,32.89a9,9,0,0,0-9-9,14.28,14.28,0,0,0-11.66,5.64V24a.37.37,0,0,0-.37-.37l-.13,0,0,0c-3.8,1.81-23.3,5.08-23.3,5.08V38h7.16V64.69h0a2.76,2.76,0,0,1-2.76,2.76h-3.59V78.66H345.1V67.45h-3.59a2.76,2.76,0,0,1-2.76-2.75V41.64c1.44-1.17,3.77-2.45,6.35-1.44h0a9,9,0,0,0,14.36-7.31Z"/><path class="cls-1" d="M209.28,64.7v-28h-.17s-1-12.79-15-12.79h-4.25s-13.44,1.87-16.71,8.18c-1.67-3.66-5.41-8.18-13.73-8.18h-4.25S143,27.24,141.42,30V24a.37.37,0,0,0-.37-.37l-.13,0,0,0c-3.8,1.81-23.3,5.08-23.3,5.08V38h7.16V64.69h0A2.76,2.76,0,0,1,122,67.45h-3.59V78.66h29.37V67.45h-3.59a2.76,2.76,0,0,1-2.76-2.75V40.57c1.91-1.72,5.45-3.91,11.21-3.91a18.78,18.78,0,0,1,5.11.51V64.69h0A2.76,2.76,0,0,1,155,67.45h-3.59V78.66h29.37V67.45h-3.59a2.76,2.76,0,0,1-2.76-2.75V42.46c.62-.92,4.29-5.8,12.89-5.8a17.83,17.83,0,0,1,5.28.56V64.69h0a2.76,2.76,0,0,1-2.76,2.76h-3.59V78.66h29.38V67.45H212A2.76,2.76,0,0,1,209.28,64.7Z"/><path class="cls-1" d="M104.76,64.74V24.87h-26v11h6.52a2.73,2.73,0,0,1,2.76,2.7V62s-2,1.62-8.31,3.24-7.92-1.74-7.92-1.74V24.87h-26v11H52.4a2.73,2.73,0,0,1,2.76,2.7V67.45c0,11.21,15.55,11.21,15.55,11.21h1.82c11.36,0,15.23-5.58,15.23-5.58h2.5v5.58H111.1V67.45h-3.59A2.76,2.76,0,0,1,104.76,64.74Z"/></g></g></svg>