<svg xmlns="http://www.w3.org/2000/svg" viewBox="0 0 3.56 3.56"><defs><style>.cls-1{fill:#fff;}</style></defs><title>Asset 5</title><g id="Layer_2" data-name="Layer 2"><g id="Layer_1-2" data-name="Layer 1"><path class="cls-1" d="M0,0V3.56H3.56V0ZM1.92,2.94a.56.56,0,0,1-.22,0,.33.33,0,0,1-.14-.1.43.43,0,0,1-.06-.17,2.12,2.12,0,0,1,0-.32V1.57h-.2V1.21h.2V.88L1.93.62v.59h.3v.36h-.3v.68a1.64,1.64,0,0,0,0,.24.08.08,0,0,0,0,.05.11.11,0,0,0,.08,0,.57.57,0,0,0,.18,0l0,.35A.85.85,0,0,1,1.92,2.94Z"/></g></g></svg>